#!OML:ASF X:\für Bonn\!DataBase\2005_08_12_Daniel\c3d\Daniel.ASF
:FULLY-SPECIFIED
:DEGREES
125
root 0.173495 16.6465 -20.886 -14.0374 213.539 -343.8
lowerback 10.6591 -7.50523 8.83545
upperback 4.02882 -9.37902 1.45518
thorax -2.7913 -4.80248 -2.0578
lowerneck -2.74636 13.1265 1.34341
upperneck 0.980682 17.4999 -13.5974
head 2.30344 8.36369 -4.04468
rclavicle 4.09496e-014 -7.15625e-015
rhumerus -65.7104 2.18082 -71.0401
rradius 40.348
rwrist 10.6893
rhand -29.7082 29.5093
rfingers 7.12502
rthumb -3.03565 -0.448885
lclavicle 4.09496e-014 -7.15625e-015
lhumerus -54.0264 -9.92504 96.7247
lradius 112.671
lwrist 13.3891
lhand -8.73523 -15.4415
lfingers 7.12502
lthumb 17.2013 13.8172
rfemur -20.8866 12.5868 19.9077
rtibia 34.6918
rfoot -9.43584 -4.86449
rtoes -32.6962
lfemur 1.29133 -2.76893 -20.2114
ltibia 79.1707
lfoot -1.21541 1.07016
ltoes 0.0990128
126
root 0.0769324 16.4839 -21.1088 -15.1724 213.707 -343.239
lowerback 11.6335 -7.44251 9.48161
upperback 4.25002 -9.17109 1.54231
thorax -3.13502 -4.72138 -2.23245
lowerneck -2.78792 12.9684 1.79843
upperneck 0.831256 17.2842 -14.3328
head 2.14113 8.23784 -3.91433
rclavicle -3.06128e-014 2.38542e-014
rhumerus -64.4425 2.37886 -71.239
rradius 40.7483
rwrist 10.2832
rhand -29.8844 29.8511
rfingers 7.12502
rthumb -3.20585 -0.104548
lclavicle -3.06128e-014 2.38542e-014
lhumerus -53.6667 -8.74145 97.138
lradius 110.46
lwrist 13.2657
lhand -8.26758 -14.4281
lfingers 7.12502
lthumb 17.6514 14.7906
rfemur -20.4933 11.1984 20.524
rtibia 37.1458
rfoot -11.894 -2.98652
rtoes -31.4015
lfemur -0.0720168 -2.87829 -19.7272
ltibia 82.535
lfoot -1.7788 0.287456
ltoes 0.711711
127
root -0.0214607 16.3311 -21.3297 -16.316 213.843 -342.655
lowerback 12.6576 -7.38533 10.0511
upperback 4.41919 -8.95762 1.71413
thorax -3.52795 -4.64306 -2.27533
lowerneck -2.86218 12.8351 2.14173
upperneck 0.747197 17.1002 -14.7137
head 2.17824 8.13914 -4.07716
rclavicle 1.22253e-014 1.03368e-014
rhumerus -63.0433 2.7567 -71.3863
rradius 41.0773
rwrist 9.91193
rhand -30.0599 30.1673
rfingers 7.12502
rthumb -3.3753 0.214312
lclavicle 1.22253e-014 1.03368e-014
lhumerus -53.2892 -7.37967 97.5547
lradius 107.919
lwrist 12.9262
lhand -8.21221 -13.7664
lfingers 7.12502
lthumb 17.7046 15.4476
rfemur -20.0331 9.96718 21.1327
rtibia 39.5814
rfoot -14.0971 -1.31629
rtoes -29.5233
lfemur -1.50577 -3.00764 -19.234
ltibia 85.6981
lfoot -2.30053 -0.64941
ltoes 0.890289
128
root -0.124299 16.1943 -21.5466 -17.3462 213.962 -342.133
lowerback 13.5847 -7.29978 10.5921
upperback 4.59732 -8.71118 1.85548
thorax -3.84972 -4.54685 -2.36059
lowerneck -3.04884 12.6769 2.49438
upperneck 0.734141 16.8941 -15.0423
head 2.24783 8.02318 -4.21936
rclavicle 4.65156e-014 -1.19271e-014
rhumerus -61.4484 2.58529 -71.1989
rradius 41.2375
rwrist 10.2392
rhand -30.2317 30.7692
rfingers 7.12502
rthumb -3.54118 0.81883
lclavicle 4.65156e-014 -1.19271e-014
lhumerus -52.936 -5.98324 97.8556
lradius 105.224
lwrist 12.6468
lhand -8.53305 -13.3003
lfingers 7.12502
lthumb 17.3959 15.9413
rfemur -19.5859 8.60436 21.6555
rtibia 41.8984
rfoot -16.0117 0.292884
rtoes -27.8243
lfemur -3.0508 -3.14051 -18.8263
ltibia 88.5904
lfoot -2.8608 -1.64911
ltoes 0.618078
129
root -0.233009 16.0752 -21.7606 -18.4544 213.984 -341.523
lowerback 14.5684 -7.20676 11.2508
upperback 4.76022 -8.42139 2.00179
thorax -4.219 -4.43416 -2.50994
lowerneck -3.28246 12.5264 2.67771
upperneck 0.748403 16.701 -15.2212
head 2.30536 7.91299 -4.29253
rclavicle 3.90612e-014 -1.27222e-014
rhumerus -59.5565 1.72879 -70.5779
rradius 41.0384
rwrist 11.3877
rhand -30.2602 31.4954
rfingers 7.12502
rthumb -3.56875 1.54551
lclavicle 3.90612e-014 -1.27222e-014
lhumerus -52.6732 -4.58343 98.013
lradius 102.348
lwrist 12.3049
lhand -9.16705 -13.0105
lfingers 7.12502
lthumb 16.7856 16.2839
rfemur -18.9745 7.37462 22.266
rtibia 43.9627
rfoot -17.7084 1.72815
rtoes -26.5017
lfemur -4.59116 -3.18656 -18.2553
ltibia 91.1913
lfoot -3.50164 -2.77606
ltoes -0.248591
130
root -0.35023 15.98 -21.9776 -19.18 214.105 -341.381
lowerback 15.4117 -7.0655 11.4069
upperback 4.86841 -8.132 2.09733
thorax -4.51434 -4.31395 -2.4665
lowerneck -3.5761 12.3782 2.72997
upperneck 0.861272 16.5222 -15.3341
head 2.38588 7.8011 -4.32184
rclavicle -1.27222e-014 2.3059e-014
rhumerus -57.3536 0.317808 -69.628
rradius 40.5593
rwrist 13.2739
rhand -30.2208 32.2476
rfingers 7.12502
rthumb -3.5307 2.29713
lclavicle -1.27222e-014 2.3059e-014
lhumerus -52.5958 -3.10666 98.0858
lradius 99.4428
lwrist 12.0602
lhand -10.1268 -12.8717
lfingers 7.12502
lthumb 15.8615 16.4986
rfemur -18.3388 6.36753 22.4183
rtibia 45.7788
rfoot -19.323 2.84326
rtoes -25.614
lfemur -6.26167 -3.1531 -18.0877
ltibia 93.4266
lfoot -4.1827 -3.97736
ltoes -1.52017
131
root -0.4753 15.9052 -22.189 -19.8022 214.216 -341.359
lowerback 16.2315 -6.90121 11.5204
upperback 4.97541 -7.8176 2.1471
thorax -4.79479 -4.17976 -2.46311
lowerneck -3.9028 12.2438 2.76863
upperneck 0.99201 16.3653 -15.4339
head 2.47667 7.69783 -4.34211
rclavicle -1.90833e-014 1.59028e-014
rhumerus -54.9234 -1.33154 -68.8071
rradius 39.7788
rwrist 15.1703
rhand -30.2259 33.0357
rfingers 7.12502
rthumb -3.53566 3.08528
lclavicle -1.90833e-014 1.59028e-014
lhumerus -52.8258 -1.63708 98.0629
lradius 96.591
lwrist 11.8523
lhand -11.1402 -12.8406
lfingers 7.12502
lthumb 14.8854 16.6046
rfemur -17.5436 5.5474 22.4266
rtibia 47.255
rfoot -20.8398 3.87886
rtoes -25.0765
lfemur -8.00833 -2.98944 -17.9715
ltibia 95.3492
lfoot -4.86672 -5.1403
ltoes -2.67209
132
root -0.605514 15.8547 -22.394 -20.279 214.32 -341.41
lowerback 16.9728 -6.70176 11.6157
upperback 5.031 -7.45689 2.17126
thorax -5.08363 -4.02116 -2.49981
lowerneck -4.22278 12.0814 2.73134
upperneck 1.21037 16.1816 -15.4149
head 2.57286 7.58076 -4.31837
rclavicle -3.8266e-014 -4.77083e-015
rhumerus -52.7191 -2.82591 -68.3783
rradius 39.4307
rwrist 16.4847
rhand -30.1325 33.7115
rfingers 7.12502
rthumb -3.44544 3.7596
lclavicle -3.8266e-014 -4.77083e-015
lhumerus -53.3691 -0.374453 97.9412
lradius 93.9367
lwrist 11.6816
lhand -12.2878 -12.9055
lfingers 7.12502
lthumb 13.7797 16.6182
rfemur -16.6847 4.82456 22.351
rtibia 48.4188
rfoot -22.3135 4.80014
rtoes -24.9171
lfemur -9.88862 -2.81453 -17.9052
ltibia 96.9519
lfoot -5.43628 -6.11961
ltoes -3.12554
133
root -0.742864 15.8248 -22.5912 -20.6155 214.435 -341.53
lowerback 17.6002 -6.49224 11.7232
upperback 5.07383 -7.09048 2.15282
thorax -5.33074 -3.85653 -2.6076
lowerneck -4.50319 11.9088 2.66448
upperneck 1.39976 15.9803 -15.3605
head 2.647 7.45994 -4.28557
rclavicle 6.25178e-014 -5.00937e-014
rhumerus -50.9171 -4.13713 -68.3777
rradius 40.1072
rwrist 17.1278
rhand -29.6977 33.8497
rfingers 7.12502
rthumb -3.02548 3.89145
lclavicle 6.25178e-014 -5.00937e-014
lhumerus -53.9249 0.638514 97.7416
lradius 91.6595
lwrist 11.6378
lhand -13.2694 -12.7572
lfingers 7.12502
lthumb 12.8335 16.8282
rfemur -15.7232 4.19643 22.1652
rtibia 49.2313
rfoot -23.6677 5.67368
rtoes -24.6929
lfemur -11.8609 -2.6184 -17.9242
ltibia 98.2231
lfoot -5.93704 -6.9001
ltoes -3.05945
134
root -0.88332 15.8085 -22.782 -20.8564 214.538 -341.71
lowerback 18.1274 -6.24004 11.8442
upperback 5.10063 -6.67298 2.08571
thorax -5.54086 -3.66383 -2.80358
lowerneck -4.58282 11.6828 2.5823
upperneck 1.51097 15.6927 -15.2436
head 2.65057 7.31381 -4.25374
rclavicle -1.39149e-014 -3.97569e-015
rhumerus -49.242 -5.50342 -68.7075
rradius 41.1981
rwrist 17.3592
rhand -29.1972 33.8109
rfingers 7.12502
rthumb -2.54214 3.84634
lclavicle -1.39149e-014 -3.97569e-015
lhumerus -54.5934 1.13032 97.5323
lradius 90.0468
lwrist 11.9956
lhand -13.9173 -12.2021
lfingers 7.12502
lthumb 12.2088 17.4216
rfemur -14.6471 3.75291 21.9323
rtibia 49.7131
rfoot -24.8792 6.36292
rtoes -24.5266
lfemur -13.8817 -2.34527 -17.9518
ltibia 99.211
lfoot -6.44375 -7.501
ltoes -3.52739
135
root -1.02614 15.8051 -22.9688 -20.9692 214.66 -341.914
lowerback 18.4912 -5.97471 11.9032
upperback 5.08616 -6.26128 2.04714
thorax -5.69978 -3.4706 -2.95221
lowerneck -4.45846 11.465 2.49321
upperneck 1.52808 15.3995 -15.1877
head 2.59725 7.17607 -4.25331
rclavicle 5.96354e-016 2.70347e-014
rhumerus -47.6573 -6.4716 -69.4155
rradius 42.6943
rwrist 16.9332
rhand -28.7397 33.5279
rfingers 7.12502
rthumb -2.10036 3.55849
lclavicle 5.96354e-016 2.70347e-014
lhumerus -55.388 1.37047 97.3466
lradius 89.0002
lwrist 12.4706
lhand -14.3446 -11.7783
lfingers 7.12502
lthumb 11.7968 17.8695
rfemur -13.4932 3.47883 21.6729
rtibia 49.8598
rfoot -25.9673 6.9787
rtoes -24.3913
lfemur -15.9511 -2.03605 -17.9721
ltibia 99.8886
lfoot -7.07727 -7.8767
ltoes -4.05083
136
root -1.17429 15.8184 -23.154 -20.9619 214.766 -342.145
lowerback 18.685 -5.68484 11.919
upperback 5.0332 -5.8387 2.0139
thorax -5.80499 -3.26783 -3.09081
lowerneck -4.15017 11.2383 2.28112
upperneck 1.5252 15.0884 -14.9712
head 2.48352 7.04413 -4.20054
rclavicle -2.50469e-014 3.02153e-014
rhumerus -46.1959 -6.93802 -70.5104
rradius 44.4996
rwrist 15.8406
rhand -28.5475 32.9835
rfingers 7.12502
rthumb -1.91473 3.01235
lclavicle -2.50469e-014 3.02153e-014
lhumerus -56.3851 1.29476 97.176
lradius 88.5902
lwrist 13.2377
lhand -14.4257 -11.3277
lfingers 7.12502
lthumb 11.7186 18.3245
rfemur -12.2232 3.41171 21.4275
rtibia 49.6668
rfoot -26.8749 7.43075
rtoes -24.0691
lfemur -18.0377 -1.60556 -17.9596
ltibia 100.251
lfoot -7.76132 -8.1003
ltoes -4.84091
137
root -1.3286 15.8473 -23.3385 -20.7824 214.909 -342.448
lowerback 18.62 -5.34956 11.8798
upperback 5.00132 -5.40279 1.94684
thorax -5.74738 -3.04863 -3.26367
lowerneck -3.83242 11.0028 2.15367
upperneck 1.5542 14.7684 -14.7518
head 2.3843 6.90836 -4.15774
rclavicle 5.84427e-014 -3.02153e-014
rhumerus -44.7825 -6.96845 -71.9597
rradius 46.5155
rwrist 14.1635
rhand -28.7325 32.2203
rfingers 7.12502
rthumb -2.09335 2.25078
lclavicle 5.84427e-014 -3.02153e-014
lhumerus -57.4378 1.04827 97.0415
lradius 88.5387
lwrist 13.8605
lhand -14.1316 -11.1848
lfingers 7.12502
lthumb 12.0022 18.4511
rfemur -10.9268 3.53984 21.1584
rtibia 49.2109
rfoot -27.6828 7.57722
rtoes -24.1218
lfemur -20.1181 -1.07301 -17.9927
ltibia 100.259
lfoot -8.4765 -8.25898
ltoes -6.5026
138
root -1.48474 15.8828 -23.5201 -20.5624 215.014 -342.753
lowerback 18.5043 -4.98507 11.7918
upperback 4.94641 -4.93931 1.90509
thorax -5.67761 -2.81465 -3.39032
lowerneck -3.35443 10.7705 1.97668
upperneck 1.48704 14.4368 -14.4854
head 2.22298 6.77932 -4.10508
rclavicle -8.34896e-015 1.19271e-014
rhumerus -43.6221 -6.7106 -73.4869
rradius 48.7653
rwrist 12.4765
rhand -29.3405 31.3631
rfingers 7.12502
rthumb -2.68056 1.40019
lclavicle -8.34896e-015 1.19271e-014
lhumerus -58.7456 0.653026 96.9327
lradius 88.8729
lwrist 14.442
lhand -13.5236 -11.3384
lfingers 7.12502
lthumb 12.5884 18.2623
rfemur -9.54209 3.79955 20.9535
rtibia 48.5307
rfoot -28.3174 7.43039
rtoes -24.4237
lfemur -22.115 -0.399169 -17.9841
ltibia 99.9569
lfoot -9.1533 -8.38262
ltoes -8.03497
139
root -1.64367 15.9209 -23.6903 -20.1306 214.99 -343.197
lowerback 18.3594 -4.55339 11.6349
upperback 4.82709 -4.39056 1.85217
thorax -5.64777 -2.5383 -3.50914
lowerneck -2.89377 10.5398 1.73852
upperneck 1.51014 14.1172 -14.1495
head 2.0842 6.65071 -4.01743
rclavicle 9.11428e-014 -6.83819e-014
rhumerus -42.6163 -6.35411 -74.9619
rradius 51.004
rwrist 11.0537
rhand -30.2408 30.6963
rfingers 7.12502
rthumb -3.54998 0.746122
lclavicle 9.11428e-014 -6.83819e-014
lhumerus -60.4439 0.125679 96.8541
lradius 89.7472
lwrist 15.0562
lhand -12.5671 -11.697
lfingers 7.12502
lthumb 13.5105 17.8447
rfemur -8.3284 4.23709 20.6958
rtibia 47.7642
rfoot -28.6807 7.0181
rtoes -25.0577
lfemur -24.1519 0.45356 -18.0718
ltibia 99.3536
lfoot -9.78234 -8.55739
ltoes -8.96876
